<svg width="17" height="10" viewBox="0 0 17 10" fill="none" xmlns="http://www.w3.org/2000/svg">
<g id="apple_pay">
<g id="g14355">
<path id="path14357" d="M15.3622 0.18138H15.6698C15.7496 0.18138 15.8388 0.191258 15.9281 0.201136C16.0074 0.211013 16.0671 0.231122 16.1267 0.260755C16.1863 0.290741 16.236 0.330252 16.2854 0.379994C16.3352 0.429736 16.3747 0.479125 16.4047 0.538744C16.4343 0.598364 16.4544 0.657983 16.4643 0.737358C16.4841 0.826611 16.4841 0.916216 16.4841 0.995591V9.18603C16.4841 9.26541 16.4742 9.35501 16.4643 9.44427C16.4544 9.51376 16.4343 9.58326 16.4047 9.64288C16.3747 9.7025 16.3352 9.75189 16.2854 9.80163C16.236 9.85137 16.1863 9.89088 16.1267 9.92087C16.0671 9.9505 16.0074 9.97026 15.9281 9.98049C15.8388 10.0002 15.7496 10.0002 15.6698 10.0002H1.56226C1.49276 10.0002 1.39363 9.99037 1.30402 9.98049C1.23453 9.97026 1.16503 9.9505 1.10576 9.91099C1.04614 9.88101 0.996402 9.84149 0.946661 9.79175C0.896919 9.74201 0.857407 9.69227 0.827421 9.633C0.797788 9.57338 0.778033 9.51376 0.768155 9.43439C0.748047 9.34478 0.748047 9.25553 0.748047 9.17616V1.13459V0.995591C0.748047 0.916216 0.758277 0.826611 0.768155 0.737358C0.778033 0.667861 0.797788 0.598364 0.827421 0.538744C0.857407 0.479125 0.896919 0.429736 0.946661 0.379994C0.996402 0.330252 1.04614 0.290741 1.10576 0.260755C1.16503 0.231122 1.22465 0.211013 1.30402 0.201136C1.39363 0.18138 1.48288 0.18138 1.56226 0.18138H15.3622Z" fill="white"/>
</g>
<g id="g14359">
<path id="path14361" d="M5.09579 3.70556C4.75818 3.6858 4.47031 3.8943 4.31156 3.8943C4.15246 3.8943 3.90445 3.71544 3.63634 3.71544C3.28886 3.72532 2.97136 3.91405 2.7925 4.2319C2.43514 4.85738 2.69302 5.7806 3.05073 6.28683C3.21936 6.53519 3.42785 6.81318 3.69596 6.80295C3.9542 6.79307 4.05333 6.63432 4.36095 6.63432C4.66892 6.63432 4.75818 6.80295 5.03617 6.79307C5.31415 6.78319 5.49301 6.54507 5.66164 6.28683C5.86025 5.99897 5.93963 5.72098 5.93963 5.7111C5.92975 5.70122 5.39353 5.50261 5.39353 4.88701C5.38365 4.3709 5.81051 4.12254 5.83062 4.11267C5.60202 3.7553 5.2249 3.71544 5.09579 3.70556ZM4.88729 3.36795C5.02629 3.18945 5.12542 2.95097 5.09579 2.71284C4.88729 2.72272 4.63894 2.85184 4.49007 3.02047C4.36095 3.16934 4.24206 3.41769 4.2717 3.64594C4.51017 3.67593 4.73842 3.54681 4.88729 3.36795Z" fill="black"/>
</g>
<g id="g14363">
<path id="path14365" d="M12.2446 7.77614V7.3193C12.2845 7.32953 12.3836 7.32953 12.4235 7.32953C12.6814 7.32953 12.8204 7.22017 12.91 6.94218C12.91 6.9323 12.9593 6.77355 12.9593 6.77355L11.9666 4.03317H12.5724L13.2673 6.26696H13.2772L13.9722 4.03317H14.5677L13.5453 6.92242C13.3068 7.58741 13.0387 7.7959 12.4729 7.7959C12.4334 7.78602 12.2944 7.78602 12.2446 7.77614ZM11.1824 5.74097V5.5226L10.5072 5.56211C10.1696 5.58222 9.9812 5.73109 9.9812 5.96922C9.9812 6.20769 10.1795 6.36644 10.4776 6.36644C10.8744 6.36644 11.1824 6.09833 11.1824 5.74097ZM9.40511 5.98897C9.40511 5.51272 9.77271 5.21462 10.4278 5.17511L11.1824 5.13525V4.92676C11.1824 4.61914 10.9739 4.44028 10.6363 4.44028C10.3086 4.44028 10.11 4.59903 10.0606 4.8375H9.52435C9.55399 4.34115 9.9812 3.97355 10.6561 3.97355C11.3214 3.97355 11.7483 4.32104 11.7483 4.87702V6.76367H11.212V6.3167H11.2022C11.0434 6.62432 10.6959 6.81306 10.3386 6.81306C9.78259 6.81306 9.40511 6.47545 9.40511 5.98897ZM7.19143 4.98638H7.85642C8.36265 4.98638 8.65052 4.70839 8.65052 4.24166C8.65052 3.76506 8.36265 3.4973 7.85642 3.4973H7.1812V4.98638H7.19143ZM8.01517 3.00094C8.75 3.00094 9.25624 3.50718 9.25624 4.23178C9.25624 4.96662 8.74013 5.47286 7.99541 5.47286H7.19143V6.75344H6.60547V3.00094H8.01517Z" fill="black"/>
</g>
</g>
</svg>
