<svg width="50" height="49" viewBox="0 0 50 49" fill="none" xmlns="http://www.w3.org/2000/svg">
<path d="M49.3242 24.3569C49.3242 37.7456 38.4706 48.5991 25.082 48.5991C11.6934 48.5991 0.839844 37.7456 0.839844 24.3569C0.839844 10.9683 11.6934 0.114754 25.082 0.114754C38.4706 0.114754 49.3242 10.9683 49.3242 24.3569Z" fill="white"/>
<path d="M31.4014 31.4429H20.7609C19.4391 31.4429 18.3204 30.5405 18.0407 29.25L15.6961 18.8057C15.567 18.2123 15.0576 17.801 14.4554 17.801H12.3027V16.2854H14.4554C15.7769 16.2854 16.8955 17.1878 17.1757 18.4783L19.5188 28.9216C19.6483 29.5149 20.1584 29.9263 20.7609 29.9263H31.4014C31.9895 29.9263 32.507 29.5139 32.6312 28.9459L33.8084 23.7054L35.288 24.0381L34.1108 29.2743C33.8366 30.5295 32.6968 31.4429 31.4014 31.4429Z" fill="#545454"/>
<path d="M17.1035 20.3274H24.6822V21.8433H17.1035V20.3274Z" fill="#545454"/>
<path d="M21.9026 33.4642C22.7397 33.4642 23.4185 34.1429 23.4185 34.9801C23.4185 35.8172 22.7397 36.4956 21.9026 36.4956C21.0655 36.4956 20.3867 35.8172 20.3867 34.9801C20.3867 34.1429 21.0655 33.4642 21.9026 33.4642Z" fill="#545454"/>
<path d="M29.9866 33.4642C30.8237 33.4642 31.5025 34.1429 31.5025 34.9801C31.5025 35.8172 30.8237 36.4956 29.9866 36.4956C29.1494 36.4956 28.4707 35.8172 28.4707 34.9801C28.4707 34.1429 29.1494 33.4642 29.9866 33.4642Z" fill="#545454"/>
<path d="M25.9085 13.8763V16.9077C25.9085 17.2414 26.0379 17.5565 26.2711 17.7949L30.5133 21.8702C30.6004 21.9563 30.8308 21.9422 30.8851 21.8875L33.9176 18.8561C33.9451 18.8289 33.9917 18.7683 33.9917 18.6772C33.9917 18.5852 33.944 18.5245 33.9169 18.4963L29.8109 14.2248C29.5886 14.0047 29.2736 13.8763 28.9399 13.8763H25.9085ZM30.7084 23.4761C30.2293 23.4761 29.7827 23.288 29.4482 22.9476L25.2071 18.8734C24.6755 18.3347 24.3926 17.6415 24.3926 16.9077V13.6237C24.3926 12.9273 24.9595 12.3604 25.6559 12.3604H28.9399C29.6758 12.3604 30.3679 12.6444 30.8904 13.1609L34.996 17.4323C35.3202 17.7515 35.5083 18.1992 35.5083 18.6762C35.5083 19.1482 35.3245 19.5927 34.99 19.9261L31.9582 22.9578C31.6259 23.2923 31.1814 23.4761 30.7084 23.4761" fill="#00D0D0"/>
</svg>
