<svg width="15" height="16" viewBox="0 0 15 16" fill="none" xmlns="http://www.w3.org/2000/svg">
<g id="facebook">
<g id="g14417">
<path id="path14419" fill-rule="evenodd" clip-rule="evenodd" d="M6.35038 10.1688C6.35038 9.42055 6.34755 8.67196 6.3532 7.92372C6.35426 7.79742 6.31827 7.75826 6.19233 7.7632C5.95915 7.77273 5.72525 7.76214 5.49172 7.76779C5.39717 7.7699 5.36225 7.7438 5.3633 7.64361C5.36824 7.17688 5.36754 6.70945 5.36401 6.24273C5.36295 6.15277 5.39012 6.12314 5.48078 6.12525C5.71961 6.1309 5.95879 6.11855 6.19727 6.13019C6.33521 6.13725 6.36378 6.08821 6.36096 5.9598C6.35285 5.60455 6.35285 5.2486 6.36061 4.89335C6.37013 4.45908 6.48655 4.05374 6.74514 3.70096C7.07216 3.254 7.53747 3.04974 8.07405 3.02575C8.62509 3.00141 9.17789 3.01481 9.72964 3.00882C9.80654 3.00811 9.82947 3.03563 9.82912 3.11042C9.82665 3.58243 9.8263 4.05515 9.82947 4.52717C9.83018 4.61113 9.80266 4.63688 9.72046 4.63583C9.45482 4.63159 9.18953 4.63371 8.92424 4.63442C8.57111 4.63547 8.35945 4.81715 8.33757 5.16676C8.31958 5.44722 8.33264 5.72908 8.32593 6.01025C8.32382 6.11044 8.38308 6.10373 8.4494 6.10338C8.85298 6.10303 9.25621 6.10762 9.65943 6.10056C9.77797 6.09844 9.81712 6.12561 9.80337 6.25049C9.75257 6.71968 9.70917 7.18994 9.66896 7.66019C9.65979 7.76638 9.6111 7.78648 9.51585 7.78507C9.19765 7.78013 8.87909 7.78155 8.56088 7.78366C8.33193 7.78507 8.35415 7.75015 8.35415 7.98333C8.3531 9.44807 8.35133 10.9132 8.35768 12.3779C8.35804 12.5328 8.31852 12.5712 8.16577 12.5684C7.61897 12.5582 7.07216 12.5578 6.52571 12.5687C6.37154 12.5716 6.34614 12.5194 6.34755 12.3821C6.3532 11.6441 6.35038 10.9065 6.35038 10.1688Z" fill="#02BAB9"/>
</g>
<g id="g14421">
<path id="path14423" d="M14.5272 8.0486C14.5272 11.8766 11.4238 14.98 7.59579 14.98C3.76745 14.98 0.664062 11.8766 0.664062 8.0486C0.664062 4.22061 3.76745 1.11722 7.59579 1.11722C11.4238 1.11722 14.5272 4.22061 14.5272 8.0486Z" stroke="#02BAB9" stroke-width="0.352778" stroke-miterlimit="10"/>
</g>
</g>
</svg>
