<svg width="10" height="11" viewBox="0 0 10 11" fill="none" xmlns="http://www.w3.org/2000/svg">
<g id="freestyle_mobile">
<path id="path14047" d="M8.29927 5.66285L7.53516 4.99681V5.7574L7.92251 6.095C8.3402 6.45907 8.58008 6.98647 8.58008 7.54069V10.9302H9.15335V7.53998C9.15335 6.82031 8.84185 6.13557 8.29927 5.66285Z" fill="white"/>
<path id="path14051" d="M5.0357 1.04499C5.0357 1.10778 4.9849 1.15859 4.9221 1.15859H2.8767C2.81426 1.15859 2.7631 1.10778 2.7631 1.04499C2.7631 0.925399 2.74158 0.810746 2.70348 0.704207H5.09532C5.05722 0.810746 5.0357 0.925399 5.0357 1.04499ZM7.53548 1.27218C7.53548 0.582851 6.97492 0.0222877 6.28559 0.0222877H6.0584H1.74075H1.51321C0.823883 0.0222877 0.263672 0.582851 0.263672 1.27218V9.68028C0.263672 10.3696 0.823883 10.9302 1.51321 10.9302H5.5183L5.4936 10.7683C5.49078 10.7481 5.46362 10.5516 5.47561 10.2483H1.51321C1.2003 10.2483 0.945239 9.99355 0.945239 9.68028V1.27218C0.945239 0.959265 1.2003 0.704207 1.51321 0.704207H1.74075C1.92878 0.704207 2.08154 0.85696 2.08154 1.04499C2.08154 1.48349 2.43819 1.8405 2.8767 1.8405H4.9221C5.36061 1.8405 5.71726 1.48349 5.71726 1.04499C5.71726 0.85696 5.87002 0.704207 6.0584 0.704207H6.28559C6.5985 0.704207 6.85356 0.959265 6.85356 1.27218V6.50564L7.53548 7.14593V5.7574V4.99716V1.27218Z" fill="white"/>
<path id="path14055" d="M6.4088 6.08944C6.24476 5.93563 6.02992 5.85061 5.80449 5.85061C5.50781 5.85061 5.23052 5.99736 5.06295 6.25419C4.84106 6.59426 4.90244 7.04723 5.17267 7.35027L6.03874 8.32005C6.04156 8.32323 6.04191 8.32781 6.03979 8.33134C5.60341 9.06759 5.49228 9.78443 5.47394 10.2487C5.46194 10.5521 5.48911 10.7482 5.49228 10.7683L5.51663 10.9303L6.08213 10.9355L6.05884 10.6833C6.05849 10.6791 6.03627 10.5126 6.04932 10.2487C6.07084 9.81936 6.18549 9.13109 6.63916 8.45552L6.75911 8.27701C6.76123 8.27349 6.76087 8.26855 6.75805 8.26537L5.58789 6.95445C5.49581 6.85144 5.46653 6.69763 5.53638 6.57839C5.59424 6.48032 5.69548 6.42387 5.80449 6.42387C5.88387 6.42387 5.95901 6.45351 6.01616 6.50748L6.85224 7.29241L7.53381 7.9327L7.7737 8.15813C7.77758 8.16165 7.78358 8.16166 7.7871 8.15777L8.16669 7.75384C8.17022 7.74996 8.17022 7.74397 8.16634 7.74044L7.53381 7.14636L6.85224 6.50572L6.4088 6.08944Z" fill="white"/>
<path id="path14059" d="M2.28986 2.73458C2.13851 2.73458 2.01539 2.8577 2.01539 3.00904V4.87665C2.01539 5.02799 2.13851 5.15111 2.28986 5.15111H5.47544C5.62678 5.15111 5.75025 5.02799 5.75025 4.87665V3.00904C5.75025 2.8577 5.62678 2.73458 5.47544 2.73458H2.28986ZM5.47544 5.48096H2.28986C1.95648 5.48096 1.68555 5.21002 1.68555 4.87665V3.00904C1.68555 2.67602 1.95648 2.40509 2.28986 2.40509H5.47544C5.80881 2.40509 6.07975 2.67602 6.07975 3.00904V4.87665C6.07975 5.21002 5.80881 5.48096 5.47544 5.48096" fill="white"/>
<path id="path14063" d="M2.73023 3.39403C2.69989 3.39403 2.6752 3.41872 2.6752 3.44906V3.77856C2.6752 3.8089 2.69989 3.83324 2.73023 3.83324H3.05973C3.09006 3.83324 3.11476 3.8089 3.11476 3.77856V3.44906C3.11476 3.41872 3.09006 3.39403 3.05973 3.39403H2.73023ZM3.05973 4.16309H2.73023C2.51821 4.16309 2.3457 3.99058 2.3457 3.77856V3.44906C2.3457 3.23704 2.51821 3.06454 2.73023 3.06454H3.05973C3.27174 3.06454 3.44425 3.23704 3.44425 3.44906V3.77856C3.44425 3.99058 3.27174 4.16309 3.05973 4.16309" fill="white"/>
<path id="path14067" d="M5.25683 4.82178H2.51045C2.41979 4.82178 2.3457 4.74805 2.3457 4.65703C2.3457 4.56601 2.41979 4.49228 2.51045 4.49228H5.25683C5.34784 4.49228 5.42157 4.56601 5.42157 4.65703C5.42157 4.74805 5.34784 4.82178 5.25683 4.82178Z" fill="white"/>
</g>
</svg>
