<svg width="12" height="12" viewBox="0 0 12 12" fill="none" xmlns="http://www.w3.org/2000/svg">
<g id="freestyle_transfer_money">
<path id="path14027" d="M6.75836 1.11029C6.75836 1.17237 6.70791 1.22247 6.64618 1.22247H4.62441C4.56232 1.22247 4.51222 1.17237 4.51222 1.11029C4.51222 0.992105 4.4907 0.878863 4.45296 0.773383H6.81727C6.77988 0.878863 6.75836 0.992105 6.75836 1.11029ZM10.8157 10.5235L10.6167 10.6057C10.2565 10.7545 9.89738 10.83 9.54954 10.83C9.19394 10.83 8.90466 10.7503 8.69088 10.6617C9.01473 10.4388 9.22921 10.0687 9.22921 9.64645V8.52885V8.1863V7.80812L9.29377 7.77602L9.19852 7.58341C9.19217 7.57071 8.58081 6.30317 9.26061 5.43781L9.36856 5.30234L8.92547 3.7727C8.90113 3.69086 8.94593 3.60478 9.02425 3.57761C9.04648 3.57126 9.06306 3.56844 9.07893 3.56844C9.10186 3.56844 9.12444 3.57409 9.14878 3.58537C9.18688 3.60478 9.2151 3.63723 9.22992 3.67886L10.3077 6.92936L10.9479 6.71734L9.87021 3.46472C9.79966 3.25341 9.64973 3.08125 9.44794 2.98001C9.37738 2.94544 9.30436 2.9225 9.22921 2.90875V1.335C9.22921 0.653438 8.67535 0.0995766 7.99379 0.0995766H3.27644C2.59488 0.0995766 2.04102 0.653438 2.04102 1.335V2.59936H2.71517V1.335C2.71517 1.02527 2.96706 0.773383 3.27644 0.773383H3.50116C3.68708 0.773383 3.83807 0.924724 3.83807 1.11029C3.83807 1.54385 4.19084 1.89663 4.62441 1.89663H6.64618C7.07974 1.89663 7.43217 1.54385 7.43217 1.11029C7.43217 0.924724 7.58315 0.773383 7.76907 0.773383H7.99379C8.30353 0.773383 8.55541 1.02527 8.55541 1.335V3.08055C8.3007 3.28587 8.18005 3.62841 8.27566 3.96002L8.62632 5.16652C7.9444 6.19805 8.41077 7.46134 8.55541 7.79613V8.1863V8.52885V9.64645C8.55541 9.95584 8.30353 10.2081 7.99379 10.2081H3.27644C2.96706 10.2081 2.71517 9.95584 2.71517 9.64645V8.199H2.04102V9.64645C2.04102 10.328 2.59488 10.8819 3.27644 10.8819H7.77013L7.84633 10.9461C7.91335 11.0032 8.53001 11.5049 9.55095 11.5049C9.98698 11.5049 10.4322 11.4117 10.8732 11.2287L11.0742 11.1468L10.8157 10.5235Z" fill="white"/>
<path id="path14031" d="M1.41173 7.15175C1.38386 7.11329 1.37504 7.0692 1.38386 7.01346C1.39656 6.93302 1.46711 6.87235 1.5486 6.87235C1.55707 6.87235 1.56589 6.87305 1.57471 6.87446L2.2083 6.9743C2.30249 6.98876 2.36105 7.07661 2.34518 7.17856C2.33847 7.22266 2.31448 7.26146 2.27885 7.28757C2.25028 7.30838 2.21606 7.31932 2.18078 7.31932C2.17161 7.31932 2.16279 7.31861 2.15432 7.3172L1.52038 7.21772C1.47628 7.21101 1.43748 7.18702 1.41173 7.15175ZM1.33094 6.17949C1.2872 6.11952 1.26991 6.04614 1.28367 5.95654C1.30483 5.82248 1.42266 5.72159 1.55778 5.72159C1.57224 5.72159 1.5867 5.72264 1.60117 5.72511L2.39139 5.84929C2.46442 5.86058 2.52862 5.89974 2.57201 5.95971C2.61576 6.01968 2.6334 6.09306 2.62211 6.16644L2.61928 6.18372C2.608 6.25675 2.56848 6.32131 2.50887 6.3647C2.46089 6.39963 2.4048 6.41797 2.34623 6.41797C2.33177 6.41797 2.31695 6.41691 2.30214 6.41444L1.51227 6.29062C1.43889 6.27898 1.37468 6.23946 1.33094 6.17949ZM1.41278 3.55341C1.44771 3.52801 1.48863 3.51461 1.53061 3.51461C1.5419 3.51461 1.55319 3.51567 1.56307 3.51708L2.24499 3.62397C2.29826 3.63279 2.34518 3.66101 2.37657 3.7044C2.40973 3.74991 2.42067 3.80353 2.41044 3.8688C2.40197 3.92207 2.3734 3.96863 2.33036 4.00003C2.29543 4.02543 2.25451 4.03919 2.21253 4.03919C2.20195 4.03919 2.19101 4.03813 2.18043 4.03637L1.49851 3.92912C1.44524 3.92066 1.39832 3.89243 1.36692 3.84904C1.33376 3.80353 1.32283 3.74991 1.33306 3.68465C1.34152 3.63138 1.3701 3.58481 1.41278 3.55341V3.55341ZM2.65033 4.78637C2.69407 4.84634 2.71171 4.91972 2.70007 4.99275L2.69725 5.00968C2.68596 5.08306 2.6468 5.14726 2.58683 5.19101C2.53885 5.22593 2.48241 5.24428 2.42385 5.24428C2.40938 5.24428 2.39457 5.24322 2.3801 5.24075L1.59023 5.11657C1.51685 5.10528 1.45265 5.06613 1.40926 5.00615C1.36551 4.94618 1.34787 4.8728 1.35952 4.79943L1.36198 4.78249C1.38315 4.64879 1.50063 4.54789 1.63539 4.54789C1.64985 4.54789 1.66432 4.54895 1.67913 4.55142L2.469 4.67525C2.54238 4.68689 2.60658 4.7264 2.65033 4.78637ZM2.18043 7.88623C2.54379 7.88623 2.84965 7.61988 2.90715 7.25299C2.93008 7.10553 2.9068 6.95596 2.84224 6.82296V6.82261C3.02463 6.68996 3.14422 6.49417 3.17914 6.27121L3.18197 6.25428C3.21689 6.03168 3.16292 5.80872 3.03027 5.62634C3.02004 5.61223 3.00946 5.59847 2.99817 5.58541C3.13681 5.457 3.22747 5.28732 3.25746 5.09788L3.26028 5.08059C3.29521 4.85799 3.24123 4.63468 3.10859 4.45264C3.04332 4.36304 2.96183 4.2886 2.86799 4.23181C2.92056 4.14502 2.95619 4.0473 2.97277 3.94182C3.00452 3.73968 2.95548 3.53683 2.83483 3.37068C2.71383 3.20522 2.53603 3.09621 2.33318 3.06411L1.6502 2.95687C1.61034 2.95087 1.57048 2.94769 1.53097 2.94769C1.36763 2.94769 1.2117 2.99885 1.07941 3.09516C0.911488 3.21792 0.804596 3.39643 0.770729 3.61127C0.738979 3.81376 0.788015 4.01661 0.909018 4.18242C0.934065 4.21734 0.96264 4.2498 0.993332 4.27943C0.89279 4.39655 0.826468 4.53872 0.802126 4.69465L0.799304 4.71158C0.764379 4.93419 0.818354 5.15714 0.950999 5.33988C0.961582 5.35434 0.972871 5.36846 0.984513 5.38221C0.845871 5.50957 0.753796 5.67925 0.723457 5.87081L0.72134 5.88528C0.686415 6.10788 0.740038 6.33083 0.873035 6.51322C0.898435 6.54814 0.926657 6.58095 0.956643 6.61164C0.887146 6.70725 0.840932 6.81943 0.821882 6.93937C0.791543 7.1327 0.83811 7.32637 0.953468 7.48512C1.06918 7.64317 1.23922 7.74724 1.43254 7.77757L2.06613 7.87706C2.10458 7.88341 2.14268 7.88623 2.18043 7.88623" fill="white"/>
<path id="path14035" d="M6.95237 4.70537L6.91074 4.80167C6.87652 4.88105 6.79927 5.03768 6.66627 5.19255C6.42215 5.47866 6.11064 5.62365 5.74023 5.62365C5.36593 5.62365 5.04384 5.47689 4.78279 5.18691C4.64027 5.02851 4.55419 4.87082 4.51609 4.79109L4.46952 4.69549L3.99609 4.87294L4.04901 4.98688C4.0984 5.09307 4.20988 5.30262 4.39509 5.51146C4.75315 5.91575 5.21847 6.12988 5.74023 6.12988C6.26445 6.12988 6.72201 5.91398 7.0635 5.50617C7.23918 5.29627 7.34078 5.08496 7.38558 4.97771L7.43427 4.86129L6.95237 4.70537Z" fill="white"/>
<g id="g14037">
<path id="path14039" d="M4.73517 3.95898C4.95001 3.95898 5.12464 3.78436 5.12464 3.56952C5.12464 3.35468 4.95001 3.18005 4.73517 3.18005C4.52033 3.18005 4.3457 3.35468 4.3457 3.56952C4.3457 3.78436 4.52033 3.95898 4.73517 3.95898Z" fill="white"/>
</g>
<g id="g14041">
<path id="path14043" d="M6.69025 3.95898C6.90509 3.95898 7.07971 3.78436 7.07971 3.56952C7.07971 3.35468 6.90509 3.18005 6.69025 3.18005C6.47541 3.18005 6.30078 3.35468 6.30078 3.56952C6.30078 3.78436 6.47541 3.95898 6.69025 3.95898Z" fill="white"/>
</g>
</g>
</svg>
