<svg width="11" height="12" viewBox="0 0 11 12" fill="none" xmlns="http://www.w3.org/2000/svg">
<g id="freestyle_fire">
<path id="path14071" d="M5.57951 10.9175C5.53824 10.7856 5.41759 10.6967 5.27965 10.6967C5.24896 10.6967 5.21791 10.7016 5.18828 10.7104C4.86478 10.8103 4.53423 10.8607 4.20579 10.8607C3.69462 10.8607 3.1905 10.7355 2.74776 10.4981C1.42061 9.78404 0.71153 8.37505 0.897091 6.82176C1.01033 5.85656 1.26786 5.21486 1.68414 4.85997L1.72577 4.82469L1.74094 4.8769C1.93355 5.52989 2.23094 5.96205 2.76752 6.36774C2.8222 6.40901 2.88746 6.43089 2.9559 6.43089C3.0067 6.43089 3.0575 6.41819 3.10266 6.39455C3.20955 6.33775 3.27481 6.22345 3.26846 6.1028C3.20884 4.86949 3.66922 2.93027 5.16359 1.52516L5.21297 1.47895L5.22285 1.54562C5.39183 2.66005 5.92629 3.55469 6.44311 4.4197L6.44946 4.42993C6.86644 5.12914 7.26014 5.78954 7.44782 6.53496C7.48275 6.67395 7.60763 6.77096 7.75156 6.77096C7.77732 6.77096 7.80272 6.76779 7.82776 6.76144C7.99498 6.71911 8.09658 6.54871 8.0546 6.38115C7.84329 5.54365 7.40443 4.80917 6.98004 4.09867C6.47027 3.24354 5.99191 2.44168 5.84198 1.45319C5.80494 1.19955 5.63737 0.992112 5.40453 0.911678C5.33609 0.887689 5.26624 0.875695 5.19604 0.875695C5.03835 0.875695 4.88524 0.938137 4.76565 1.05138C3.11818 2.58914 2.75235 4.53153 2.67121 5.29494L2.66063 5.39513L2.6063 5.31047C2.49835 5.14184 2.41404 4.94675 2.34066 4.69663C2.27328 4.47403 2.10324 4.30223 1.88593 4.23767C1.82842 4.22073 1.7688 4.21191 1.70919 4.21191C1.56349 4.21191 1.42097 4.26448 1.30843 4.35902C0.561246 4.99402 0.361221 6.02625 0.275849 6.74733C0.0599489 8.56202 0.893915 10.2102 2.45249 11.0487C2.98695 11.3349 3.59302 11.4858 4.20544 11.4858C4.59597 11.4858 4.98896 11.4262 5.37278 11.3087C5.53753 11.2579 5.63031 11.0823 5.57951 10.9175Z" fill="white"/>
<path id="path14075" d="M6.70769 8.00294C6.85515 8.00294 6.97544 8.12288 6.97544 8.27034C6.97544 8.41815 6.85515 8.5381 6.70769 8.5381C6.56023 8.5381 6.44028 8.41815 6.44028 8.27034C6.44028 8.12288 6.56023 8.00294 6.70769 8.00294ZM6.70769 9.16357C7.20016 9.16357 7.60092 8.76317 7.60092 8.27034C7.60092 7.77786 7.20016 7.37711 6.70769 7.37711C6.21521 7.37711 5.81445 7.77786 5.81445 8.27034C5.81445 8.76317 6.21521 9.16357 6.70769 9.16357Z" fill="white"/>
<path id="path14079" d="M9.4948 11.3234C9.34733 11.3234 9.22739 11.2034 9.22739 11.056C9.22739 10.9082 9.34733 10.7882 9.4948 10.7882C9.64226 10.7882 9.76255 10.9082 9.76255 11.056C9.76255 11.2034 9.64226 11.3234 9.4948 11.3234ZM9.4948 10.1628C9.00232 10.1628 8.60156 10.5632 8.60156 11.056C8.60156 11.5485 9.00232 11.9492 9.4948 11.9492C9.98727 11.9492 10.388 11.5485 10.388 11.056C10.388 10.5632 9.98727 10.1628 9.4948 10.1628Z" fill="white"/>
<path id="path14083" d="M9.34268 7.53865L6.36523 11.427L6.86195 11.8076L9.83939 7.91895L9.34268 7.53865Z" fill="white"/>
</g>
</svg>
