<svg width="16" height="16" viewBox="0 0 16 16" fill="none" xmlns="http://www.w3.org/2000/svg">
<g id="g14437">
<g id="instagram">
<path id="path14427" d="M7.98848 11.0881V11.0863C8.59949 11.0856 9.21156 11.1061 9.82186 11.0807C10.7031 11.044 11.2912 10.4848 11.3145 9.60816C11.3473 8.36603 11.3377 7.12214 11.3155 5.87965C11.3064 5.37236 11.1091 4.90846 10.6364 4.65798C10.3782 4.52146 10.0685 4.42021 9.77953 4.41386C8.58538 4.3867 7.38981 4.38282 6.19566 4.40822C5.24351 4.42833 4.66707 5.003 4.64696 5.95303C4.62121 7.14718 4.62121 8.34275 4.64696 9.5369C4.66743 10.4855 5.2488 11.0514 6.19636 11.0842C6.79291 11.105 7.39087 11.0881 7.98848 11.0881ZM3.86133 9.39473V6.09661C3.87438 6.00207 3.89414 5.90823 3.89978 5.81333C3.96998 4.62129 4.83288 3.71078 6.02421 3.67303C7.32702 3.63175 8.63335 3.63281 9.93651 3.67267C11.1271 3.70866 12.0246 4.61741 12.0567 5.80839C12.0913 7.09779 12.0874 8.38967 12.0574 9.67942C12.0331 10.7243 11.3572 11.5103 10.3419 11.7509C10.0833 11.8123 9.81481 11.8303 9.55058 11.8684H6.37628C6.26833 11.8543 6.16109 11.8335 6.05314 11.8275C4.98457 11.7661 4.17036 11.0771 3.95623 10.041C3.91213 9.82829 3.89237 9.61028 3.86133 9.39473Z" fill="#02BAB9"/>
<path id="path14431" d="M7.98985 6.37818C7.22115 6.37571 6.61649 6.97508 6.61508 7.74132C6.61402 8.49944 7.21021 9.10551 7.96269 9.11115C8.73245 9.1168 9.34452 8.51884 9.34805 7.7579C9.35157 6.98814 8.75397 6.38065 7.98985 6.37818ZM10.0956 7.75225C10.091 8.933 9.14732 9.86716 7.96833 9.85834C6.79429 9.84987 5.86719 8.91818 5.86719 7.74661C5.86683 6.56516 6.80417 5.62818 7.98421 5.62994C9.16495 5.63206 10.1002 6.57186 10.0956 7.75225" fill="#02BAB9"/>
<path id="path14435" d="M10.6741 5.55239C10.6705 5.82756 10.4448 6.04875 10.1742 6.04311C9.90502 6.03711 9.67712 5.80322 9.68171 5.53758C9.68665 5.26629 9.91243 5.0511 10.1894 5.05392C10.4719 5.05674 10.678 5.26876 10.6741 5.55239Z" fill="#02BAB9"/>
<path id="path14439" d="M14.9022 8.0486C14.9022 11.8766 11.7988 14.98 7.97079 14.98C4.14245 14.98 1.03906 11.8766 1.03906 8.0486C1.03906 4.22061 4.14245 1.11722 7.97079 1.11722C11.7988 1.11722 14.9022 4.22061 14.9022 8.0486Z" stroke="#02BAB9" stroke-width="0.352778" stroke-miterlimit="10"/>
</g>
</g>
</svg>
