<svg width="9" height="15" viewBox="0 0 9 15" fill="none" xmlns="http://www.w3.org/2000/svg">
<g id="get_cash_back">
<path id="path14095" d="M8.11402 11.2236L5.96208 13.1826C5.53698 13.5685 4.98665 13.782 4.41268 13.782C3.7999 13.782 3.22241 13.5431 2.78743 13.1082L1.9644 12.2855C1.52943 11.8502 1.28883 11.2709 1.28883 10.6564V5.72241C1.28883 5.60564 1.38373 5.51109 1.5005 5.51109C1.7933 5.51109 2.04589 5.73087 2.08646 6.02403L2.49604 8.64835C2.51473 8.76512 2.59587 8.86001 2.7077 8.89741C2.73981 8.90729 2.77226 8.91258 2.80578 8.91258C2.88903 8.91258 2.967 8.88047 3.02626 8.82086L6.95091 4.89444C7.03205 4.81506 7.13718 4.77097 7.25042 4.77097C7.36578 4.77097 7.47408 4.81683 7.55522 4.89797C7.63671 4.97769 7.68046 5.08423 7.68046 5.19924C7.68046 5.31283 7.63671 5.41937 7.55522 5.4991L4.93938 8.11671C4.88011 8.17598 4.84801 8.2557 4.84801 8.33861C4.84801 8.42151 4.88011 8.50089 4.93938 8.55874C4.99864 8.61801 5.07661 8.65011 5.15951 8.65011C5.24241 8.65011 5.32214 8.61801 5.38141 8.55874L6.45808 7.48171C6.53781 7.40727 6.64082 7.36494 6.75089 7.36494C6.86448 7.36494 6.97279 7.4108 7.05569 7.49194C7.13542 7.57308 7.17951 7.67997 7.17951 7.79321C7.17951 7.90681 7.13542 8.01335 7.05569 8.09484L5.98571 9.16305C5.92645 9.22232 5.89435 9.30204 5.89435 9.38495C5.89435 9.46785 5.92645 9.54758 5.98571 9.60508C6.04498 9.66435 6.12295 9.69645 6.20761 9.69645C6.29052 9.69645 6.36848 9.66435 6.42775 9.60508L6.97949 9.05475C7.05922 8.97855 7.16258 8.93621 7.27406 8.93621C7.38942 8.93621 7.49596 8.98031 7.57886 9.06321C7.65859 9.14294 7.70268 9.24948 7.70268 9.36272C7.70268 9.47632 7.65859 9.58462 7.57886 9.66435L7.05075 10.1925L7.01336 10.1805V10.2348C6.91176 10.3583 6.92058 10.5396 7.03558 10.6532C7.09485 10.7124 7.17246 10.7446 7.25571 10.7446C7.33862 10.7446 7.41834 10.7124 7.47761 10.6532L7.50795 10.6225C7.58591 10.5463 7.68928 10.5057 7.79899 10.5057C7.91435 10.5057 8.02265 10.5498 8.10379 10.6327C8.18493 10.7124 8.22903 10.819 8.22903 10.934C8.22903 11.0458 8.18705 11.151 8.11402 11.2236ZM8.54265 10.1858C8.43223 10.0757 8.30029 9.99278 8.15636 9.94198C8.26995 9.77089 8.33098 9.57121 8.33098 9.36131C8.33098 9.08191 8.22056 8.81592 8.01913 8.61624C7.91082 8.50794 7.77888 8.42327 7.63319 8.37247C7.74643 8.20138 7.80746 8.00312 7.80746 7.79321C7.80746 7.51205 7.69739 7.24817 7.49596 7.04674C7.39295 6.94337 7.26736 6.86188 7.13189 6.81143L8.00078 5.94113C8.41036 5.5312 8.40859 4.8641 7.99725 4.45276C7.79899 4.2545 7.53653 4.1462 7.25571 4.1462C6.97455 4.1462 6.71032 4.2545 6.51241 4.45276L3.02097 7.94385L2.70418 5.93266C2.61951 5.33647 2.10163 4.88632 1.5005 4.88632C1.03836 4.88632 0.664062 5.26203 0.664062 5.72241V10.6564C0.664062 11.4371 0.968862 12.1737 1.52272 12.7272L2.3454 13.5502C2.8975 14.1019 3.63233 14.4067 4.41268 14.4067C5.14258 14.4067 5.84178 14.1358 6.38188 13.6433L8.54582 11.6741C8.74408 11.4759 8.85415 11.212 8.85415 10.9308C8.85415 10.6497 8.74408 10.3854 8.54265 10.1858" fill="white"/>
<path id="path14099" d="M3.72165 2.63574C3.92379 2.63574 4.08784 2.47135 4.08784 2.26956V1.25956C4.08784 1.05777 3.92379 0.893725 3.72165 0.893725C3.51986 0.893725 3.35547 1.05777 3.35547 1.25956V2.26956C3.35547 2.47135 3.51986 2.63574 3.72165 2.63574Z" fill="white"/>
<path id="path14103" d="M5.4072 3.52295C5.50492 3.52295 5.59664 3.4852 5.66579 3.41606L6.38051 2.70168C6.52268 2.55881 6.52268 2.32668 6.38051 2.1838C6.31137 2.11466 6.21965 2.07656 6.12157 2.07656C6.0235 2.07656 5.93143 2.11466 5.86264 2.1838L5.14791 2.89818C5.07912 2.96732 5.04102 3.05905 5.04102 3.15712C5.04102 3.25519 5.07912 3.34727 5.14861 3.41676C5.21811 3.4852 5.31019 3.52295 5.4072 3.52295Z" fill="white"/>
<path id="path14107" d="M1.77705 3.41676C1.84655 3.4852 1.93827 3.52295 2.03564 3.52295C2.13371 3.52295 2.22578 3.48485 2.29422 3.4157C2.36337 3.34656 2.40147 3.25484 2.40147 3.15677C2.40147 3.05905 2.36337 2.96697 2.29422 2.89783L1.57985 2.18345C1.5107 2.11431 1.41898 2.07621 1.32091 2.07621C1.22319 2.07621 1.13111 2.11431 1.06197 2.18345C0.919448 2.32597 0.919448 2.55845 1.06197 2.70133L1.77705 3.41676Z" fill="white"/>
</g>
</svg>
