<svg width="17" height="12" viewBox="0 0 17 12" fill="none" xmlns="http://www.w3.org/2000/svg">
<g id="google_pay">
<g id="g14367">
<path id="path14369" d="M15.3132 0.795978H1.51326C1.41413 0.795978 1.30477 0.805856 1.20564 0.825612C1.10615 0.84572 1.00702 0.875353 0.90754 0.925095C0.818288 0.964606 0.729035 1.0341 0.659538 1.1036C0.590041 1.1731 0.520543 1.2627 0.48068 1.35196C0.430938 1.44121 0.401304 1.54069 0.381548 1.6497C0.36144 1.74918 0.36144 1.85819 0.351562 1.95768V10.1481C0.351562 10.2476 0.36144 10.3566 0.381548 10.4561C0.401304 10.5552 0.430938 10.6544 0.48068 10.7538C0.530421 10.8431 0.590041 10.9323 0.659538 11.0018C0.729035 11.0713 0.818288 11.1408 0.90754 11.1807C0.997146 11.2304 1.09628 11.2601 1.20564 11.2798C1.30477 11.2999 1.41413 11.2999 1.51326 11.3098H15.6208C15.7203 11.3098 15.8293 11.2999 15.9288 11.2798C16.0279 11.2601 16.1274 11.2304 16.2266 11.1807C16.3158 11.131 16.4054 11.0713 16.4749 11.0018C16.5444 10.9323 16.6139 10.8431 16.6534 10.7538C16.7032 10.6646 16.7328 10.5651 16.7529 10.4561C16.7727 10.3566 16.7727 10.2476 16.7825 10.1481V10.0091V2.2653V2.09667V1.95768C16.7825 1.85819 16.7727 1.74918 16.7529 1.6497C16.7328 1.55057 16.7032 1.45109 16.6534 1.35196C16.6037 1.2627 16.5444 1.1731 16.4749 1.1036C16.4054 1.0341 16.3158 0.964606 16.2266 0.925095C16.1373 0.875353 16.0378 0.84572 15.9288 0.825612C15.8293 0.805856 15.7203 0.805856 15.6208 0.795978H15.3132Z" fill="#4E5051"/>
</g>
<g id="g14371">
<path id="path14373" d="M15.3134 1.14354H15.621C15.7007 1.14354 15.79 1.15342 15.8792 1.16329C15.9586 1.17317 16.0182 1.19328 16.0779 1.22291C16.1375 1.2529 16.1869 1.29241 16.2366 1.34215C16.2864 1.39189 16.3259 1.44128 16.3558 1.5009C16.3855 1.56052 16.4056 1.62014 16.4155 1.69952C16.4352 1.78877 16.4352 1.87837 16.4352 1.95775V10.1482C16.4352 10.2276 16.4253 10.3172 16.4155 10.4064C16.4056 10.4759 16.3855 10.5454 16.3558 10.605C16.3259 10.6647 16.2864 10.714 16.2366 10.7638C16.1869 10.8135 16.1375 10.853 16.0779 10.883C16.0182 10.9127 15.9586 10.9324 15.8792 10.9426C15.79 10.9624 15.7007 10.9624 15.621 10.9624H1.51343C1.44393 10.9624 1.3448 10.9525 1.2552 10.9426C1.1857 10.9324 1.1162 10.9127 1.05658 10.8731C0.997316 10.8432 0.947574 10.8037 0.897833 10.7539C0.848091 10.7042 0.808579 10.6544 0.778593 10.5952C0.74896 10.5355 0.729205 10.4759 0.719327 10.3965C0.699218 10.3069 0.699219 10.2177 0.699219 10.1383V2.09674V1.95775C0.699219 1.87837 0.709096 1.78877 0.719327 1.69952C0.729205 1.63002 0.74896 1.56052 0.778593 1.5009C0.808579 1.44128 0.848091 1.39189 0.897833 1.34215C0.947574 1.29241 0.997316 1.2529 1.05658 1.22291C1.1162 1.19328 1.17582 1.17317 1.2552 1.16329C1.3448 1.14354 1.43405 1.14354 1.51343 1.14354H15.3134Z" fill="white"/>
</g>
<g id="g14375">
<path id="path14377" d="M14.5796 5.18237L13.1057 8.5708H12.6499L13.1967 7.38511L12.227 5.18237H12.7067L13.4077 6.87182H13.4172L14.0988 5.18237H14.5796ZM10.528 6.81432C10.5276 6.92827 10.5823 7.03551 10.6744 7.10219C10.7721 7.17874 10.8931 7.22001 11.0173 7.21755C11.2039 7.21684 11.3824 7.14276 11.5144 7.01117C11.6604 6.87323 11.7338 6.71201 11.7338 6.5261C11.5958 6.41639 11.4043 6.36135 11.1577 6.36135C10.9785 6.36135 10.8286 6.40439 10.709 6.49118C10.5883 6.57937 10.528 6.68591 10.528 6.81432ZM11.0995 5.10582C11.4262 5.10582 11.6837 5.19295 11.8724 5.36723C12.0612 5.5415 12.1553 5.78103 12.1553 6.08442V7.53399H11.7331V7.20731H11.714C11.5313 7.47648 11.2879 7.61054 10.9845 7.61054C10.7255 7.61054 10.5086 7.53399 10.3343 7.38018C10.165 7.2373 10.0687 7.02599 10.0729 6.80409C10.0729 6.56067 10.165 6.36735 10.3488 6.22377C10.5326 6.07984 10.7781 6.00787 11.0854 6.00787C11.3475 6.00787 11.5637 6.05585 11.7331 6.15145V6.05056C11.7341 5.89921 11.6671 5.75599 11.551 5.65968C11.4343 5.55455 11.2819 5.49705 11.1245 5.49881C10.8783 5.49881 10.6829 5.60323 10.5393 5.81102L10.1505 5.56619C10.3639 5.25892 10.6804 5.10582 11.0995 5.10582ZM8.27761 4.52021V5.72036H9.0181C9.18214 5.7253 9.34053 5.66074 9.45483 5.54256C9.68661 5.31713 9.69225 4.94601 9.46612 4.71388C9.46224 4.71 9.45871 4.70612 9.45483 4.70259C9.34195 4.58194 9.18284 4.51562 9.0181 4.52021H8.27761ZM8.27761 6.14263V7.53399H7.83594V4.09687H9.00681C9.28938 4.09088 9.56243 4.19812 9.76528 4.39462C9.9706 4.57947 10.0863 4.8437 10.0817 5.11993C10.0877 5.39756 9.97201 5.66426 9.76528 5.84947C9.56031 6.04491 9.30737 6.14263 9.00681 6.14193L8.27761 6.14263Z" fill="#4E5051"/>
</g>
<g id="g14379">
<path id="path14381" d="M6.49384 5.84205C6.49384 5.70729 6.4829 5.57323 6.45962 5.44023H4.59766V6.20082H5.66375C5.61965 6.446 5.47748 6.66296 5.2697 6.80054V7.29443H5.90646C6.279 6.95153 6.49384 6.44318 6.49384 5.84205Z" fill="#4285F4"/>
</g>
<g id="g14383">
<path id="path14385" d="M4.59592 7.77197C5.12897 7.77197 5.5777 7.59699 5.90473 7.29502L5.26796 6.80113C5.09087 6.92143 4.86297 6.99022 4.59592 6.99022C4.08122 6.99022 3.64377 6.64308 3.48749 6.1753H2.83203V6.68401C3.16682 7.35111 3.8498 7.77197 4.59592 7.77197Z" fill="#34A853"/>
</g>
<g id="g14387">
<path id="path14389" d="M3.48725 6.17502C3.4047 5.9302 3.4047 5.6642 3.48725 5.41937V4.91032H2.83144C2.55098 5.46841 2.55098 6.12599 2.83144 6.68408L3.48725 6.17502Z" fill="#FBBC04"/>
</g>
<g id="g14391">
<path id="path14393" d="M4.59592 4.60403C4.87744 4.59944 5.14943 4.70563 5.35333 4.90001L5.91707 4.33662C5.55971 4.00113 5.08628 3.81663 4.59592 3.82227C3.8498 3.82227 3.16682 4.24349 2.83203 4.90989L3.48749 5.41895C3.64377 4.95116 4.08122 4.60403 4.59592 4.60403Z" fill="#EA4335"/>
</g>
</g>
</svg>
