<svg width="28" height="11" viewBox="0 0 28 11" fill="none" xmlns="http://www.w3.org/2000/svg">
<path d="M16.0522 9.14399L15.7506 9.69679L15.1406 9.8252L15.5636 10.2552L15.4881 10.9121L16.0522 10.6302L16.6131 10.9121L16.5577 10.238L16.974 9.81815L16.3686 9.69785L16.0522 9.14399Z" fill="white"/>
<path d="M18.267 9.14399L17.9654 9.69679L17.3555 9.8252L17.7784 10.2552L17.703 10.9121L18.267 10.6302L18.828 10.9121L18.7726 10.238L19.1889 9.81815L18.5835 9.69785L18.267 9.14399Z" fill="white"/>
<path d="M20.4487 9.14399L20.1471 9.69679L19.5371 9.8252L19.9601 10.2552L19.8846 10.9121L20.4487 10.6302L21.0096 10.9121L20.9542 10.238L21.3705 9.81815L20.7651 9.69785L20.4487 9.14399Z" fill="white"/>
<path d="M22.6381 9.14399L22.3365 9.69679L21.7266 9.8252L22.1495 10.2552L22.074 10.9121L22.6381 10.6302L23.1991 10.9121L23.144 10.238L23.5599 9.81815L22.9546 9.69785L22.6381 9.14399Z" fill="white"/>
<path d="M11.0049 10.181C11.0963 9.91144 11.1958 9.64403 11.2755 9.37098C11.3157 9.2334 11.4099 9.25598 11.503 9.25845C11.5983 9.26127 11.7034 9.22176 11.7472 9.37134C11.8361 9.67614 11.9444 9.97564 12.0527 10.302C12.137 10.1831 12.1448 10.0628 12.179 9.95377C12.2337 9.7802 12.2936 9.60629 12.3264 9.42778C12.3532 9.28244 12.4217 9.24927 12.5586 9.25457C12.8316 9.26444 12.8313 9.25668 12.7526 9.51174C12.6249 9.92555 12.4933 10.3379 12.3741 10.7542C12.3405 10.8699 12.2876 10.9042 12.1705 10.902C11.8678 10.8964 11.8664 10.9027 11.7754 10.6216C11.6932 10.3683 11.6145 10.1139 11.4956 9.85676C11.4357 10.0409 11.3753 10.2247 11.3161 10.4089C11.2953 10.4738 11.2776 10.5401 11.2568 10.605C11.158 10.9147 11.0945 10.9504 10.77 10.9003C10.697 10.889 10.6786 10.8449 10.6617 10.7891C10.5177 10.3207 10.3756 9.85182 10.2288 9.38439C10.1964 9.28102 10.2295 9.25809 10.3297 9.25562C10.6394 9.24751 10.6398 9.24398 10.7283 9.5449C10.7975 9.7795 10.8645 10.0148 10.9326 10.2501C11.0063 10.2787 10.9711 10.1937 11.0049 10.181Z" fill="white"/>
<path d="M13.6648 10.9619C13.4059 10.945 13.191 10.9009 12.9963 10.7788C12.8375 10.6797 12.9695 10.5986 13.0079 10.5121C13.0481 10.4218 13.0979 10.3954 13.1907 10.4641C13.306 10.5499 13.4432 10.5947 13.5861 10.6155C13.6782 10.6289 13.7689 10.6236 13.8518 10.5749C13.9036 10.5442 13.9435 10.5022 13.9403 10.4391C13.9368 10.3745 13.892 10.335 13.8334 10.3195C13.6849 10.2807 13.5339 10.2504 13.3857 10.2091C13.2182 10.1622 13.0605 10.0955 12.9868 9.9184C12.8816 9.66616 13.0016 9.379 13.2704 9.27281C13.5935 9.14476 13.9057 9.18991 14.207 9.35783C14.3379 9.43121 14.2677 9.50424 14.2204 9.57938C14.1784 9.64605 14.1566 9.74271 14.0345 9.65946C13.8853 9.55751 13.7152 9.51023 13.5307 9.55327C13.4528 9.57162 13.3865 9.60972 13.3822 9.69544C13.3776 9.78223 13.4545 9.80516 13.5198 9.82315C13.6736 9.86513 13.8324 9.89123 13.983 9.94168C14.2476 10.0306 14.3629 10.1883 14.3594 10.4268C14.3562 10.6557 14.2063 10.8391 13.9505 10.9118C13.8475 10.9411 13.7382 10.9496 13.6648 10.9619Z" fill="white"/>
<path d="M6.57213 10.3374C6.67903 10.0566 6.80038 9.78005 6.88716 9.49289C6.94573 9.29922 7.04274 9.23572 7.23994 9.25335C7.45267 9.27205 7.45373 9.25759 7.37541 9.45056C7.19796 9.88835 7.01734 10.3247 6.84554 10.7647C6.80603 10.8663 6.75487 10.9022 6.64586 10.8998C6.57496 10.9022 6.55802 10.8998 6.50934 10.9001C6.35518 10.9022 6.29026 10.8557 6.23735 10.7174C6.07154 10.281 5.89374 9.8492 5.71383 9.41881C5.66514 9.30239 5.65315 9.24665 5.81331 9.25512C6.17914 9.27417 6.08918 9.18668 6.22712 9.54369C6.32872 9.80792 6.42855 10.0725 6.52945 10.3371L6.57213 10.3374Z" fill="white"/>
<path d="M7.64494 10.0673C7.64494 9.8454 7.65024 9.62315 7.64283 9.40161C7.6393 9.29119 7.67246 9.25168 7.78676 9.25521C8.15365 9.26614 8.08133 9.21393 8.08521 9.55013C8.0898 9.94841 8.08239 10.3467 8.08874 10.7453C8.0905 10.8618 8.06016 10.9055 7.93669 10.9016C7.58674 10.89 7.65094 10.938 7.64565 10.6138C7.64248 10.4317 7.64494 10.2493 7.64494 10.0673Z" fill="white"/>
<path d="M2.95995 9.66069C2.79556 9.6741 2.6294 9.66528 2.4643 9.66739C2.39692 9.66845 2.37434 9.63353 2.37646 9.57179C2.37822 9.51464 2.37646 9.45784 2.37646 9.40069C2.37646 9.05673 2.37646 9.05673 2.71618 9.05321C2.8012 9.05744 2.88799 9.05356 2.97159 9.06802C3.14128 9.09801 3.23371 9.21584 3.22806 9.37811C3.22312 9.52452 3.11729 9.64799 2.95995 9.66069ZM3.31696 10.186C3.25593 10.0897 3.24147 10.0343 3.36988 9.9863C3.50217 9.93656 3.59213 9.83073 3.65528 9.70373C3.90293 9.20772 3.57943 8.65386 3.0231 8.63446C2.70384 8.62317 2.38351 8.63763 2.0639 8.62776C1.92737 8.62352 1.88892 8.66727 1.89068 8.80168C1.89739 9.38905 1.88962 9.97643 1.89492 10.5638C1.89844 10.9547 1.81625 10.8898 2.24029 10.9007C2.3433 10.9035 2.38316 10.8728 2.37857 10.7663C2.37152 10.5896 2.37575 10.4128 2.37752 10.2361C2.37822 10.1934 2.36235 10.144 2.4135 10.1137C2.50804 10.0579 2.74723 10.1204 2.80261 10.2188C2.90915 10.4072 3.01428 10.5966 3.11976 10.7857C3.15045 10.8407 3.17691 10.8989 3.25523 10.8986C3.40692 10.8975 3.55862 10.8982 3.74312 10.8982C3.59037 10.6418 3.45878 10.4107 3.31696 10.186" fill="white"/>
<path d="M9.53344 9.91339C9.43713 9.91057 9.34047 9.91268 9.24416 9.91268C9.14186 9.91268 9.03955 9.91127 8.9376 9.91304C8.85752 9.91445 8.83988 9.87988 8.86387 9.80685C8.91114 9.66292 9.06107 9.55955 9.23358 9.55673C9.42161 9.55356 9.55425 9.63646 9.61352 9.78604C9.64633 9.87 9.6368 9.91656 9.53344 9.91339ZM9.44595 9.22724C9.09247 9.14892 8.78061 9.23958 8.56365 9.53415C8.33329 9.84671 8.32412 10.1946 8.50404 10.5343C8.71605 10.9357 9.25686 11.0726 9.73805 10.8613C9.96277 10.7625 9.96665 10.7304 9.8273 10.5329C9.76416 10.4426 9.7183 10.4757 9.64668 10.5128C9.32636 10.6793 9.00569 10.6084 8.8868 10.3526C8.84411 10.2616 8.84129 10.203 8.97217 10.209C9.13163 10.2161 9.29144 10.2108 9.45124 10.2104C9.6167 10.2104 9.78215 10.2097 9.94725 10.2108C10.015 10.2111 10.0746 10.2062 10.0735 10.1148C10.0686 9.75887 9.91338 9.33095 9.44595 9.22724" fill="white"/>
<path d="M5.05581 9.91321C4.9535 9.91109 4.8512 9.91285 4.74889 9.91285C4.64659 9.9125 4.54428 9.91179 4.44197 9.91285C4.35907 9.91356 4.34849 9.8744 4.37177 9.80384C4.42328 9.64862 4.56933 9.55373 4.75983 9.5569C4.9408 9.56008 5.08368 9.6585 5.12919 9.80596C5.15106 9.87722 5.13836 9.91497 5.05581 9.91321ZM5.13765 9.29302C4.84626 9.13851 4.44056 9.18437 4.19044 9.40062C3.8359 9.70683 3.78934 10.2917 4.08532 10.6523C4.40634 11.0442 5.01242 11.0174 5.36696 10.7948C5.44316 10.7468 5.4354 10.7038 5.39377 10.629C5.31969 10.4953 5.26007 10.4452 5.09814 10.5341C4.82439 10.6837 4.53123 10.6025 4.40599 10.3803C4.3312 10.2469 4.34919 10.2131 4.49948 10.2113C4.65329 10.2095 4.8071 10.211 4.96126 10.2106C5.12636 10.2106 5.29182 10.2102 5.45727 10.211C5.51795 10.211 5.56734 10.2078 5.57757 10.127C5.61531 9.82607 5.41352 9.43907 5.13765 9.29302" fill="white"/>
<path d="M14.5424 6.0943C13.8844 6.0943 13.2699 5.53056 13.2699 4.74986C13.2699 3.96952 13.8403 3.40578 14.5424 3.40578C15.2003 3.40578 15.8148 3.96952 15.8148 4.74986C15.8148 5.57395 15.2444 6.0943 14.5424 6.0943ZM14.5424 2.53865C13.314 2.53865 12.3047 3.44917 12.3047 4.74986C12.3047 6.00751 13.314 6.96143 14.5424 6.96143C15.7707 6.96143 16.78 6.00751 16.78 4.74986C16.8238 3.49256 15.8148 2.53865 14.5424 2.53865Z" fill="white"/>
<path d="M9.67322 6.0943C9.01493 6.0943 8.40075 5.53056 8.40075 4.74986C8.40075 3.96952 8.97119 3.40578 9.67322 3.40578C10.3311 3.40578 10.9457 3.96952 10.9457 4.74986C10.9457 5.57395 10.3311 6.0943 9.67322 6.0943ZM9.67322 2.53865C8.44484 2.53865 7.43555 3.44917 7.43555 4.74986C7.43555 6.00751 8.44484 6.96143 9.67322 6.96143C10.9016 6.96143 11.9109 6.00751 11.9109 4.74986C11.9109 3.49256 10.9016 2.53865 9.67322 2.53865Z" fill="white"/>
<path d="M3.83791 3.2327V4.18661H6.11933C6.03148 4.70696 5.85615 5.09713 5.59298 5.35748C5.24197 5.66087 4.75937 6.05139 3.83791 6.05139C2.43386 6.05139 1.33707 4.92392 1.33707 3.57948C1.33707 2.19201 2.43386 1.06453 3.83791 1.06453C4.58368 1.06453 5.15412 1.36792 5.54888 1.71505L6.20717 1.06453C5.63673 0.544182 4.89095 0.110617 3.83791 0.110617C1.90751 0.110617 0.328125 1.67166 0.328125 3.53609C0.328125 5.44426 1.95126 6.96191 3.83791 6.96191C4.89095 6.96191 5.63673 6.61513 6.25091 6.008C6.8651 5.40087 7.08453 4.53374 7.08453 3.79644C7.08453 3.57948 7.08452 3.36288 7.04078 3.18931H3.83791V3.2327Z" fill="white"/>
<path d="M25.7748 3.40584C26.1696 3.40584 26.4769 3.57906 26.6084 3.8828L24.5902 4.70689C24.5465 3.83941 25.2485 3.40584 25.7748 3.40584ZM25.8627 6.09436C25.3801 6.09436 25.0291 5.87741 24.7659 5.44384L27.749 4.22958L27.6615 3.96958C27.4858 3.49263 26.9157 2.58175 25.7311 2.58175C24.5902 2.58175 23.625 3.49263 23.625 4.79332C23.625 6.05097 24.5902 7.00488 25.8627 7.00488C26.8716 7.00488 27.4858 6.39775 27.7052 6.00758L26.9595 5.48723C26.6963 5.83401 26.3453 6.09436 25.8627 6.09436Z" fill="white"/>
<path d="M22.1777 6.83154H23.1429V0.32703H22.1777V6.83154Z" fill="white"/>
<path d="M19.4572 6.09446C18.7993 6.09446 18.2288 5.53072 18.2288 4.75002C18.2288 3.96968 18.7993 3.40594 19.4572 3.40594C20.1151 3.40594 20.6418 3.96968 20.6418 4.75002C20.6418 5.53072 20.1151 6.09446 19.4572 6.09446ZM20.554 2.71202V3.05916C20.2908 2.79881 19.8961 2.58185 19.3256 2.58185C18.1847 2.58185 17.1758 3.53611 17.1758 4.79341C17.1758 6.05107 18.1847 7.00498 19.3256 7.00498C19.852 7.00498 20.2908 6.78837 20.5102 6.48463H20.554V6.78837C20.554 7.61211 20.1151 8.08906 19.3694 8.08906C18.7552 8.08906 18.4042 7.6555 18.2288 7.30872L17.3952 7.6555C17.6584 8.26263 18.2726 8.95654 19.3694 8.95654C20.5102 8.95654 21.4754 8.30602 21.4754 6.6582V2.71202H20.554Z" fill="white"/>
</svg>
