<svg width="15" height="16" viewBox="0 0 15 16" fill="none" xmlns="http://www.w3.org/2000/svg">
<g id="linkedin">
<path id="path14443" d="M7.76487 6.7415C7.86753 6.62685 7.95396 6.51466 8.05591 6.41941C8.35154 6.14142 8.71384 6.03877 9.11107 6.043C9.44621 6.04653 9.76336 6.11779 10.047 6.30511C10.3553 6.50902 10.5497 6.79759 10.6672 7.14367C10.7674 7.43859 10.8016 7.74409 10.8026 8.05277C10.8058 8.86452 10.803 9.67626 10.8051 10.488C10.8055 10.5564 10.7882 10.5773 10.7183 10.5769C10.2798 10.5737 9.84132 10.5737 9.40282 10.5769C9.33332 10.5773 9.31462 10.5568 9.31498 10.488C9.31709 9.74152 9.31674 8.99504 9.31603 8.24857C9.31568 8.02879 9.30051 7.81112 9.20985 7.6051C9.08355 7.31794 8.85389 7.19976 8.55368 7.20681C8.12188 7.21704 7.77651 7.55148 7.7684 7.98328C7.75711 8.6017 7.76205 9.22047 7.76064 9.83889C7.75993 10.0608 7.75958 10.2827 7.76099 10.5046C7.76134 10.5519 7.75076 10.5758 7.69608 10.5758C7.23923 10.5741 6.78238 10.5744 6.32589 10.5744C6.31319 10.5744 6.30049 10.5713 6.2832 10.5691V6.14989C6.31143 6.14848 6.33683 6.14601 6.36223 6.14601C6.80073 6.14566 7.23923 6.14672 7.67773 6.14425C7.74229 6.14389 7.76452 6.16224 7.7624 6.22786C7.75817 6.37144 7.76099 6.51502 7.76134 6.6586C7.76134 6.68364 7.76346 6.70869 7.76487 6.7415Z" fill="#02BAB9"/>
<path id="path14447" d="M3.97407 6.14999H5.45644C5.45821 6.18068 5.46138 6.20784 5.46138 6.23536C5.46138 7.65282 5.46103 9.07028 5.46279 10.4874C5.46279 10.5555 5.44586 10.5773 5.37566 10.5766C4.93716 10.5738 4.49865 10.5738 4.06015 10.5766C3.99065 10.5773 3.97231 10.5576 3.97266 10.4884C3.97443 9.06852 3.97407 7.64859 3.97407 6.22866V6.14999Z" fill="#02BAB9"/>
<path id="path14451" d="M4.73309 4.01122C5.02095 4.01475 5.29153 4.11282 5.45734 4.40774C5.687 4.81767 5.50144 5.32285 5.05905 5.4816C4.80047 5.57473 4.54188 5.56591 4.29141 5.44456C3.9852 5.29674 3.8141 4.89952 3.91641 4.57567C4.02859 4.22077 4.29635 4.02851 4.73309 4.01122Z" fill="#02BAB9"/>
<path id="path14455" d="M14.2772 8.0486C14.2772 11.8766 11.1738 14.98 7.34579 14.98C3.51745 14.98 0.414062 11.8766 0.414062 8.0486C0.414062 4.22061 3.51745 1.11722 7.34579 1.11722C11.1738 1.11722 14.2772 4.22061 14.2772 8.0486Z" stroke="#02BAB9" stroke-width="0.352778" stroke-miterlimit="10"/>
</g>
</svg>
