<svg width="5" height="3" viewBox="0 0 5 3" fill="none" xmlns="http://www.w3.org/2000/svg">
<path d="M3.05317 0.333767C2.92688 0.333767 2.81152 0.346132 2.71028 0.369769C2.60938 0.393405 2.5187 0.426912 2.44003 0.469246C2.38782 0.497115 2.3388 0.532053 2.28517 0.578972L2.23296 0.623758L2.18074 0.578972C2.12359 0.52923 2.06362 0.48934 1.998 0.455121C1.84419 0.376099 1.64558 0.336601 1.40745 0.336954C1.28186 0.336954 1.16617 0.349319 1.06492 0.372955C0.964027 0.396591 0.873 0.430099 0.794331 0.472432C0.717073 0.51406 0.648643 0.565205 0.591845 0.623414C0.534695 0.682328 0.487777 0.748679 0.452147 0.820645C0.389 0.946234 0.356174 1.10431 0.355469 1.28952L0.357945 2.65507L0.359711 2.68858C0.366766 2.80958 0.466251 2.90381 0.586549 2.90381C0.706846 2.90381 0.805981 2.80854 0.812331 2.68789L0.812676 2.67445L0.8102 1.42388C0.809847 1.26513 0.831737 1.14277 0.876539 1.05069C0.923459 0.950503 0.994711 0.874607 1.0882 0.824866C1.1778 0.777593 1.28541 0.753647 1.40853 0.753294C1.52565 0.753294 1.62865 0.774445 1.71508 0.816425C1.80574 0.860522 1.87666 0.928239 1.92676 1.01926C1.95462 1.07076 1.97579 1.13176 1.9892 1.20055C1.99519 1.23019 2.00082 1.35789 2.00082 1.36954L2.0033 2.64482L2.00612 2.6847C2.01353 2.8057 2.11408 2.90062 2.23473 2.90062C2.35538 2.90062 2.45592 2.80501 2.46333 2.68401L2.46615 2.65258L2.46367 1.36885C2.47285 1.21574 2.49012 1.11347 2.52187 1.04751C2.56879 0.947669 2.63971 0.871773 2.73355 0.821679C2.82316 0.774407 2.93076 0.75046 3.05388 0.750107C3.17101 0.750107 3.27365 0.771258 3.36043 0.813239C3.4511 0.857336 3.522 0.925413 3.57175 1.01572C3.59997 1.06758 3.6208 1.12858 3.63455 1.19737C3.64761 1.26298 3.65431 1.34204 3.65466 1.43094L3.65677 2.66248L3.65783 2.68229C3.66453 2.80294 3.76401 2.89744 3.88396 2.89709C4.00461 2.89709 4.10374 2.80182 4.10974 2.68117L4.11151 2.6586L4.10903 1.29262C4.10868 1.18538 4.09845 1.08736 4.07835 1.00022C4.05824 0.915202 4.02789 0.836149 3.98697 0.766299C3.91041 0.635419 3.79471 0.529631 3.64302 0.45202C3.48991 0.373351 3.29235 0.333767 3.05599 0.333767C3.05493 0.333767 3.05388 0.333767 3.05317 0.333767" fill="url(#paint0_linear_16_2490)"/>
<defs>
<linearGradient id="paint0_linear_16_2490" x1="10.4698" y1="4.59979" x2="10.4698" y2="0.230963" gradientUnits="userSpaceOnUse">
<stop stop-color="#29CECE"/>
<stop offset="0.00128142" stop-color="#29CECE"/>
<stop offset="0.799345" stop-color="#29CECE"/>
<stop offset="1" stop-color="#18FA88"/>
</linearGradient>
</defs>
</svg>
