<svg width="50" height="49" viewBox="0 0 50 49" fill="none" xmlns="http://www.w3.org/2000/svg">
<path d="M49.125 24.3569C49.125 37.7456 38.2714 48.5991 24.8828 48.5991C11.4942 48.5991 0.640625 37.7456 0.640625 24.3569C0.640625 10.9683 11.4942 0.114753 24.8828 0.114753C38.2714 0.114753 49.125 10.9683 49.125 24.3569Z" fill="white"/>
<path d="M25.6834 14.0722C25.6834 14.2098 25.5719 14.3213 25.4344 14.3213H20.9523C20.8147 14.3213 20.7032 14.2098 20.7032 14.0722C20.7032 13.8101 20.6553 13.5593 20.572 13.3251H25.8143C25.731 13.5593 25.6834 13.8101 25.6834 14.0722ZM34.6792 34.9422L34.2383 35.1243C33.4389 35.4545 32.6427 35.6217 31.8718 35.6217C31.0834 35.6217 30.442 35.4456 29.9675 35.2488C30.6858 34.7549 31.1617 33.934 31.1617 32.9977V30.5205V29.7606V28.9224L31.3049 28.8512L31.094 28.4236C31.0799 28.3957 29.7245 25.5855 31.2308 23.6667L31.4707 23.3665L30.4879 19.9753C30.4343 19.7936 30.533 19.6027 30.707 19.5428C30.7567 19.5287 30.793 19.5227 30.8283 19.5227C30.8795 19.5227 30.9296 19.535 30.9832 19.5601C31.0679 19.6027 31.1307 19.6747 31.1631 19.7668L33.5525 26.974L34.9717 26.5038L32.5827 19.2927C32.4264 18.8235 32.0937 18.4421 31.6461 18.2177C31.4905 18.1408 31.3279 18.09 31.1617 18.0593V14.5704C31.1617 13.0594 29.9337 11.8311 28.4224 11.8311H17.9639C16.453 11.8311 15.2246 13.0594 15.2246 14.5704V17.3735H16.719V14.5704C16.719 13.8839 17.2774 13.3251 17.9639 13.3251H18.4617C18.8744 13.3251 19.2089 13.6609 19.2089 14.0722C19.2089 15.0336 19.991 15.8153 20.9523 15.8153H25.4344C26.3957 15.8153 27.1774 15.0336 27.1774 14.0722C27.1774 13.6609 27.5122 13.3251 27.9246 13.3251H28.4224C29.1089 13.3251 29.6677 13.8839 29.6677 14.5704V18.4403C29.1032 18.8958 28.8358 19.655 29.0475 20.3909L29.825 23.0653C28.313 25.3523 29.347 28.1534 29.6677 28.8953V29.7606V30.5205V32.9977C29.6677 33.6839 29.1089 34.2427 28.4224 34.2427H17.9639C17.2774 34.2427 16.719 33.6839 16.719 32.9977V29.7889H15.2246V32.9977C15.2246 34.5087 16.453 35.737 17.9639 35.737H27.9264L28.0957 35.8796C28.2442 36.0062 29.6112 37.1182 31.875 37.1182C32.8416 37.1182 33.8283 36.9121 34.8066 36.5061L35.2522 36.3241L34.6792 34.9422Z" fill="#545454"/>
<path d="M13.8275 27.4663C13.7657 27.3813 13.746 27.2836 13.7657 27.1597C13.7936 26.9816 13.9506 26.8472 14.1305 26.8472C14.1496 26.8472 14.169 26.8486 14.1884 26.8518L15.5938 27.0726C15.8023 27.1054 15.9321 27.3001 15.8969 27.5259C15.8817 27.6233 15.8291 27.7094 15.7501 27.7672C15.6866 27.8134 15.6111 27.8378 15.5325 27.8378C15.5127 27.8378 15.4926 27.836 15.4742 27.8335L14.0688 27.6127C13.9711 27.5975 13.885 27.545 13.8275 27.4663ZM13.6483 25.3112C13.5516 25.1782 13.5128 25.0152 13.5438 24.8162C13.5904 24.5192 13.8518 24.2955 14.1513 24.2955C14.1831 24.2955 14.2152 24.298 14.2476 24.3033L15.9992 24.5788C16.1611 24.6039 16.3036 24.691 16.4003 24.8236C16.4969 24.9566 16.5361 25.1193 16.5107 25.2816L16.5047 25.3197C16.4797 25.4819 16.3922 25.6248 16.2595 25.7215C16.1537 25.7987 16.0292 25.8396 15.8997 25.8396C15.8669 25.8396 15.8344 25.8368 15.8016 25.8315L14.0504 25.5571C13.8878 25.5313 13.7449 25.4438 13.6483 25.3112V25.3112ZM13.8299 19.4882C13.9076 19.4321 13.9979 19.4022 14.0914 19.4022C14.116 19.4022 14.1407 19.4043 14.1626 19.4078L15.675 19.6452C15.7932 19.6643 15.8969 19.7274 15.9667 19.8234C16.0401 19.9239 16.0644 20.0432 16.0415 20.1878C16.0228 20.3056 15.9597 20.409 15.8641 20.4788C15.7864 20.5353 15.6961 20.5653 15.603 20.5653C15.5794 20.5653 15.5554 20.5631 15.5314 20.5593L14.0197 20.3218C13.9016 20.3028 13.7978 20.2397 13.728 20.1437C13.6546 20.0432 13.6299 19.9239 13.6532 19.7789C13.6715 19.6614 13.7347 19.5577 13.8299 19.4882V19.4882ZM16.5735 22.2219C16.6705 22.3546 16.7097 22.5175 16.6839 22.6798L16.6779 22.7176C16.6529 22.8798 16.5654 23.0227 16.4324 23.119C16.3262 23.1963 16.2013 23.2376 16.0715 23.2376C16.039 23.2376 16.0066 23.2351 15.9748 23.2298L14.2229 22.9543C14.0607 22.9289 13.9185 22.8421 13.8218 22.7091C13.7245 22.5765 13.6857 22.4135 13.7114 22.2512L13.7174 22.2134C13.764 21.9168 14.0243 21.6934 14.3235 21.6934C14.3556 21.6934 14.3877 21.6959 14.4208 21.7012L16.1713 21.9757C16.334 22.0018 16.4765 22.0889 16.5735 22.2219ZM15.5321 29.0947C16.3375 29.0947 17.0152 28.5045 17.1432 27.6907C17.194 27.364 17.1422 27.032 16.9986 26.7371V26.7368C17.4032 26.4425 17.6685 26.0083 17.7465 25.5144L17.7525 25.4766C17.8297 24.9827 17.7101 24.4885 17.4159 24.0839C17.3934 24.0532 17.3697 24.0228 17.3447 23.9932C17.6519 23.7089 17.8534 23.3325 17.9197 22.9126L17.9257 22.8745C18.003 22.3807 17.8837 21.8861 17.5895 21.4825C17.4445 21.2835 17.2642 21.1184 17.0561 20.9928C17.1729 20.8002 17.2515 20.5836 17.2882 20.3497C17.3588 19.901 17.2501 19.4515 16.9824 19.0836C16.7146 18.7167 16.3202 18.4751 15.8704 18.4038L14.3563 18.166C14.2681 18.1526 14.1795 18.1459 14.0917 18.1459C13.7301 18.1459 13.3837 18.2588 13.0905 18.4722C12.7183 18.7442 12.4816 19.14 12.4061 19.6163C12.3359 20.0654 12.4446 20.5155 12.7127 20.8835C12.7688 20.9604 12.8316 21.0323 12.9 21.0983C12.6771 21.3576 12.53 21.673 12.4756 22.0184L12.4696 22.0565C12.3924 22.5496 12.5116 23.0439 12.8062 23.4492C12.8298 23.4813 12.8542 23.5127 12.8803 23.5431C12.5726 23.8253 12.3684 24.2013 12.3014 24.6261L12.2964 24.6582C12.2192 25.1517 12.338 25.6467 12.6326 26.0503C12.6894 26.1282 12.7515 26.2012 12.8189 26.2686C12.6647 26.4813 12.5617 26.7294 12.5197 26.995C12.452 27.424 12.5561 27.8537 12.8118 28.2054C13.0679 28.5564 13.4447 28.7864 13.8737 28.8541L15.2784 29.0746C15.3635 29.0884 15.4481 29.0947 15.5321 29.0947Z" fill="#545454"/>
<path d="M26.8039 20.1825L22.0823 25.7546L20.0334 23.8313L19.1758 24.9266L21.6932 27.291C21.816 27.4056 21.9719 27.4688 22.1335 27.4688C22.3215 27.4688 22.5025 27.383 22.6316 27.2324L27.7726 21.1671L26.8039 20.1825Z" fill="#00D0D0"/>
</svg>
