<svg width="10" height="11" viewBox="0 0 10 11" fill="none" xmlns="http://www.w3.org/2000/svg">
<g id="no_annual_fees">
<path id="path14087" d="M6.48807 6.35688C6.48807 5.74692 5.99171 5.25056 5.38176 5.25056H4.93444C4.65433 5.25056 4.42644 5.0202 4.42644 4.73727C4.42644 4.45717 4.65433 4.22963 4.93444 4.22963H6.18891C6.35366 4.22963 6.48807 4.09522 6.48807 3.93012C6.48807 3.76537 6.35366 3.63096 6.18891 3.63096H5.59977H5.45725V3.48844V3.04676C5.45725 2.88166 5.3232 2.74761 5.1581 2.74761C4.993 2.74761 4.85894 2.88166 4.85894 3.04676V3.5089V3.62814L4.74111 3.64895C4.21195 3.74279 3.82812 4.20281 3.82812 4.74292C3.82812 5.35287 4.32448 5.84923 4.93444 5.84923H5.38176C5.66186 5.84923 5.88941 6.07959 5.88941 6.36287C5.88941 6.64263 5.66186 6.87052 5.38176 6.87052H4.12728C3.96218 6.87052 3.82812 7.00458 3.82812 7.16968C3.82812 7.33478 3.96218 7.46883 4.12728 7.46883H4.71642H4.85894V7.61135V8.05303C4.85894 8.21813 4.993 8.35254 5.1581 8.35254C5.3232 8.35254 5.45725 8.21813 5.45725 8.05303V7.59124V7.47165L5.57508 7.45084C6.10389 7.357 6.48807 6.89698 6.48807 6.35688Z" fill="white"/>
<path id="path14091" d="M8.04443 2.56304C8.82689 3.31939 9.31443 4.37843 9.31443 5.54965C9.31443 7.84165 7.45035 9.70608 5.15836 9.70608C4.32474 9.70608 3.54828 9.45843 2.89705 9.03439L8.04443 2.56304ZM1.00193 5.54965C1.00193 3.25766 2.86636 1.39358 5.15836 1.39358C6.05159 1.39358 6.87885 1.67756 7.55724 2.15875L2.39293 8.64916C1.54027 7.88751 1.00193 6.78049 1.00193 5.54965ZM9.90851 5.54895C9.90851 2.93028 7.77773 0.7995 5.15906 0.7995H5.15871H5.15836C3.21067 0.7995 1.53392 1.97813 0.80155 3.65912C0.795553 3.67358 0.788497 3.68769 0.782147 3.70216C0.774033 3.72191 0.766625 3.74202 0.758511 3.76177C0.533439 4.31387 0.408203 4.91712 0.408203 5.54895V5.5493V5.54965C0.408203 8.16903 2.53898 10.2998 5.15836 10.2998C5.15871 10.2998 5.15871 10.2998 5.15906 10.2998C5.81311 10.2998 6.43682 10.1668 7.00444 9.92657C7.00479 9.92621 7.00515 9.92621 7.0055 9.92586C7.03231 9.91457 7.05842 9.90187 7.08488 9.88988C8.74646 9.1494 9.90851 7.48323 9.90851 5.54965C9.90851 5.5493 9.90851 5.5493 9.90851 5.54895" fill="white"/>
</g>
</svg>
