<svg width="46" height="9" viewBox="0 0 46 9" fill="none" xmlns="http://www.w3.org/2000/svg">
<path d="M29.4355 7.604H29.801V7.24313H29.4355V7.604Z" fill="white"/>
<path d="M30.781 7.63135C30.3164 7.63135 29.9707 7.27257 29.9707 6.8189V6.81431C29.9707 6.36523 30.3097 5.99728 30.7948 5.99728C31.0925 5.99728 31.271 6.09676 31.4178 6.24105L31.1963 6.49576C31.0745 6.38534 30.9504 6.31796 30.7923 6.31796C30.526 6.31796 30.3344 6.53915 30.3344 6.80973V6.81431C30.3344 7.08525 30.5214 7.31103 30.7923 7.31103C30.9729 7.31103 31.0834 7.23871 31.2075 7.12582L31.4291 7.34913C31.2665 7.52304 31.0858 7.63135 30.781 7.63135Z" fill="white"/>
<path d="M32.9057 6.81431C32.9057 6.54338 32.7071 6.31796 32.4273 6.31796C32.1472 6.31796 31.9532 6.53879 31.9532 6.80973V6.81431C31.9532 7.08525 32.1522 7.31103 32.4316 7.31103C32.7117 7.31103 32.9057 7.08948 32.9057 6.8189V6.81431ZM32.4273 7.63135C31.9394 7.63135 31.5898 7.26799 31.5898 6.8189V6.81431C31.5898 6.36523 31.944 5.99728 32.4316 5.99728C32.9195 5.99728 33.2691 6.36029 33.2691 6.80973V6.81431C33.2691 7.2634 32.9149 7.63135 32.4273 7.63135Z" fill="white"/>
<path d="M34.8148 7.604V6.57248L34.3703 7.24735H34.3611L33.9209 6.57918V7.604H33.5801V6.02391H33.9547L34.3703 6.69243L34.7855 6.02391H35.1602V7.604H34.8148Z" fill="white"/>
<path d="M35.4883 7.604H35.8541V7.24313H35.4883V7.604Z" fill="white"/>
<path d="M36.8817 6.43067L36.6718 6.9429H37.092L36.8817 6.43067ZM37.3601 7.604L37.2158 7.24982H36.5477L36.403 7.604H36.0488L36.7262 6.01298H37.0465L37.7235 7.604H37.3601Z" fill="white"/>
<path d="M38.5708 7.62891C38.146 7.62891 37.8867 7.39184 37.8867 6.92688V6.02412H38.2342V6.91771C38.2342 7.17523 38.363 7.30823 38.5753 7.30823C38.7874 7.30823 38.9161 7.17982 38.9161 6.92935V6.02412H39.2636V6.91559C39.2636 7.39431 38.9951 7.62891 38.5708 7.62891Z" fill="white"/>
<path d="M24.5869 3.65479L22.6237 3.23746C22.6237 3.23746 22.5877 3.76768 22.6851 4.39774C22.7958 5.11388 22.931 5.46066 22.931 5.46066C22.931 5.46066 23.2354 5.6307 23.9039 5.89775C24.4581 6.1193 24.9771 6.20361 24.9771 6.20361L24.5869 3.65479Z" fill="white"/>
<path d="M26.8855 3.75606C26.7747 2.9803 26.6011 2.62364 26.6011 2.62364L24.875 3.60472L25.2655 6.15918C25.2655 6.15918 25.7277 5.93199 26.2561 5.5397C26.8558 5.09485 26.9765 4.94915 26.9765 4.94915C26.9765 4.94915 26.991 4.49372 26.8855 3.75606" fill="white"/>
<path d="M26.382 2.4206C26.382 2.4206 26.0938 2.28513 25.4659 2.16237C24.8661 2.04524 24.4791 2.05053 24.4791 2.05053C24.4791 2.05053 24.1338 2.1225 23.5707 2.44565C23.0384 2.75186 22.7773 2.97975 22.7773 2.97975L24.6915 3.38086L26.382 2.4206Z" fill="white"/>
<path d="M28.074 4.49088C27.9968 5.07049 27.7678 5.624 27.4115 6.09213L27.1974 6.37259L27.2848 6.71585L27.5046 7.5805L26.6989 7.15435L26.3934 6.99278L26.0745 7.12613C25.6635 7.29828 25.2313 7.38542 24.7904 7.38542C24.4249 7.38542 24.0629 7.32509 23.7158 7.20656C22.8843 6.92222 22.2101 6.3352 21.8168 5.55274L21.8066 5.53192C21.4199 4.73923 21.3635 3.84141 21.6471 3.00568C21.9353 2.16678 22.5315 1.48874 23.3232 1.09751C23.7818 0.87314 24.2714 0.759899 24.778 0.759899C25.1431 0.759899 25.5047 0.819518 25.8515 0.936993C26.6936 1.22486 27.3709 1.81964 27.759 2.61304C28.0483 3.20077 28.1566 3.85094 28.074 4.49088ZM28.4162 2.29025C27.9255 1.28836 27.0732 0.58104 26.0886 0.244137C25.6702 0.10232 25.2239 0.0285902 24.778 0.0275318H24.7755H24.7727C24.1769 0.0285902 23.5726 0.160881 23.0018 0.440281C21.9995 0.934876 21.2919 1.78719 20.9553 2.76756C20.6226 3.74793 20.6607 4.85565 21.1507 5.85754L21.1642 5.88329C21.6584 6.86789 22.5072 7.56675 23.4791 7.89906C23.8989 8.04264 24.342 8.11743 24.7904 8.11743C25.3149 8.11743 25.8466 8.01477 26.3567 7.80134L28.6208 8.99902L27.9939 6.53522C28.4289 5.96443 28.7062 5.29062 28.7997 4.58718C28.8977 3.82906 28.7789 3.02755 28.4162 2.29025Z" fill="white"/>
<path d="M2.38362 3.30276C2.38362 3.03571 2.19806 2.89248 1.89997 2.89248H1.43924V3.7208H1.91161C2.20971 3.7208 2.38362 3.54265 2.38362 3.31017V3.30276ZM1.89221 4.25068H1.43924V5.06348H0.84375V2.3545H1.95006C2.59635 2.3545 2.98723 2.73797 2.98723 3.29147V3.29888C2.98723 3.92577 2.49969 4.25068 1.89221 4.25068" fill="white"/>
<path d="M5.05668 3.27934C5.05668 3.02393 4.87853 2.89235 4.58819 2.89235H3.99623V3.66987H4.59984C4.88982 3.66987 5.05668 3.51535 5.05668 3.2871V3.27934ZM5.04504 5.06299L4.46437 4.19621H3.99623V5.06299H3.40039V2.35436H4.63864C5.27717 2.35436 5.66028 2.69126 5.66028 3.2483V3.25606C5.66028 3.69315 5.42428 3.96832 5.07961 4.09567L5.74142 5.06299H5.04504Z" fill="white"/>
<path d="M8.2775 3.70898C8.2775 3.24473 7.93707 2.85808 7.45729 2.85808C6.97716 2.85808 6.64449 3.23697 6.64449 3.70122V3.70898C6.64449 4.17359 6.98492 4.56024 7.46505 4.56024C7.94483 4.56024 8.2775 4.18135 8.2775 3.71639V3.70898ZM7.45729 5.10986C6.62121 5.10986 6.02148 4.48686 6.02148 3.71674V3.70898C6.02148 2.93887 6.62897 2.30845 7.46505 2.30845C8.30078 2.30845 8.9005 2.93146 8.9005 3.70122V3.70898C8.9005 4.4791 8.29302 5.10986 7.45729 5.10986Z" fill="white"/>
<path d="M11.2182 3.70881C11.2182 3.22903 10.8891 2.89248 10.4019 2.89248H9.94119V4.52549H10.4019C10.8891 4.52549 11.2182 4.19635 11.2182 3.71622V3.70881ZM10.4019 5.06348H9.3457V2.3545H10.4019C11.2532 2.3545 11.8413 2.9387 11.8413 3.70105V3.70881C11.8413 4.47116 11.2532 5.06348 10.4019 5.06348Z" fill="white"/>
<path d="M13.4457 5.10547C12.7186 5.10547 12.2734 4.69942 12.2734 3.90214V2.35451H12.8689V3.88662C12.8689 4.32795 13.0901 4.55619 13.4535 4.55619C13.8172 4.55619 14.0377 4.33535 14.0377 3.90638V2.35451H14.6339V3.88274C14.6339 4.7033 14.1735 5.10547 13.4457 5.10547Z" fill="white"/>
<path d="M16.4533 5.10986C15.6561 5.10986 15.0645 4.49427 15.0645 3.71674V3.70898C15.0645 2.93852 15.6444 2.30845 16.4766 2.30845C16.9871 2.30845 17.293 2.47849 17.5445 2.72614L17.1652 3.16359C16.956 2.97379 16.7437 2.85738 16.4727 2.85738C16.0162 2.85738 15.6871 3.23697 15.6871 3.70122V3.70898C15.6871 4.17359 16.0085 4.55988 16.4727 4.55988C16.7821 4.55988 16.9719 4.43641 17.1846 4.24309L17.5635 4.6255C17.2852 4.9243 16.9758 5.10986 16.4533 5.10986Z" fill="white"/>
<path d="M19.266 2.90399V5.06299H18.6701V2.90399H17.8457V2.35436H20.0904V2.90399H19.266Z" fill="white"/>
<path d="M31.7305 3.30669C31.7305 3.05092 31.5524 2.91969 31.262 2.91969H30.6704V3.69757L31.2737 3.69721C31.564 3.69721 31.7305 3.5427 31.7305 3.31445V3.30669ZM31.7189 5.09033L31.1385 4.22426H30.6704V5.09033H30.0742V2.3817H31.3125C31.951 2.3817 32.3341 2.71825 32.3341 3.27564V3.2834C32.3341 3.72085 32.0981 3.99531 31.7534 4.12302L32.4153 5.09033H31.7189Z" fill="white"/>
<path d="M36.5804 5.10986H36.054L34.959 2.38183H35.6169L36.3249 4.28965L37.033 2.38183H37.6757L36.5804 5.10986Z" fill="white"/>
<path d="M33.4634 3.99143H34.7401V3.4612H33.4634V2.91193H34.6389L34.4561 2.3817H32.8711V5.09033H34.9338V4.56011H33.4634V3.99143Z" fill="white"/>
<path d="M39.9341 3.99143H41.2105V3.4612H39.9341V2.91193H41.1092L40.9268 2.3817H39.3418V5.09033H41.4045V4.56011H39.9341V3.99143Z" fill="white"/>
<path d="M38.0898 5.09033H38.686V2.38171H38.0898V5.09033Z" fill="white"/>
<path d="M44.6396 5.10938H44.1207L43.5097 3.33737L42.8983 5.10938H42.3797L41.4551 2.3817H42.0936L42.6545 4.21579L43.2624 2.37358H43.7728L44.3803 4.21579L44.9412 2.38134H45.5653L44.6396 5.10938Z" fill="white"/>
</svg>
